<svg xmlns="http://www.w3.org/2000/svg" viewBox="0 0 1440 320">
        <path
          fill="#375078"
          fill-opacity="1"
          d="M0,288L16,282.7C32,277,64,267,96,224C128,181,160,107,192,80C224,53,256,75,288,117.3C320,160,352,224,384,213.3C416,203,448,117,480,90.7C512,64,544,96,576,90.7C608,85,640,43,672,26.7C704,11,736,21,768,74.7C800,128,832,224,864,256C896,288,928,256,960,229.3C992,203,1024,181,1056,181.3C1088,181,1120,203,1152,213.3C1184,224,1216,224,1248,229.3C1280,235,1312,245,1344,213.3C1376,181,1408,107,1424,69.3L1440,32L1440,0L1424,0C1408,0,1376,0,1344,0C1312,0,1280,0,1248,0C1216,0,1184,0,1152,0C1120,0,1088,0,1056,0C1024,0,992,0,960,0C928,0,896,0,864,0C832,0,800,0,768,0C736,0,704,0,672,0C640,0,608,0,576,0C544,0,512,0,480,0C448,0,416,0,384,0C352,0,320,0,288,0C256,0,224,0,192,0C160,0,128,0,96,0C64,0,32,0,16,0L0,0Z"
        ></path>
      </svg>
